Motion_pl02
version=1
nRows=9
nColumns=43
inDegrees=yes
endheader
time	pelvis_tilt	pelvis_list	pelvis_rotation	pelvis_tx	pelvis_ty	pelvis_tz	hip_flexion_r	hip_adduction_r	hip_rotation_r	knee_angle_r	ankle_angle_r	subtalar_angle_r	mtp_angle_r	hip_flexion_l	hip_adduction_l	hip_rotation_l	knee_angle_l	ankle_angle_l	subtalar_angle_l	mtp_angle_l	lumbar_extension	lumbar_bending	lumbar_rotation	neck_flexion	neck_lateral_bending	neck_rotation	arm_flex_r	arm_add_r	arm_rot_r	elbow_flex_r	pro_sup_r	wrist_flex_r	wrist_dev_r	hand_finger_flex_r	arm_flex_l	arm_add_l	arm_rot_l	elbow_flex_l	pro_sup_l	wrist_flex_l	wrist_dev_l	hand_finger_flex_l
      0.49750000	      0.98123178	      1.03160457	     85.76476081	      0.04507026	      1.63614660	      1.05618116	     42.49346522	     -1.51382923	      0.60841713	    -64.84294126	    -22.30516831	     -5.01893746	     -2.33622366	     46.62724709	     -9.73374677	     -3.19165179	    -44.45356912	    -28.43535877	      3.97160291	     17.92993169	    -51.72821535	      0.13634918	      4.17607423	     20.74958768	     -0.09272841	     -0.79911603	     25.52715910	    -33.65532117	     -3.63391578	     51.49390237	    127.58579619	     23.50207515	      2.30154209	    -18.11062776	     29.61526942	    -33.85914643	      6.46242364	     53.65323101	    127.86905589	     -9.96935975	     -3.76621854	     -5.74704497
      0.50000000	      0.98698747	      1.22965617	     85.75160206	      0.04479847	      1.63037498	      1.05042691	     42.08521231	     -1.51729989	      0.49742921	    -63.93626347	    -22.17465479	     -4.98072316	     -2.31865600	     46.10509732	     -9.77279345	     -3.44559233	    -43.91458648	    -28.63208580	      3.94216082	     17.82560866	    -51.70394512	      0.15394877	      4.07520524	     20.47180066	     -0.06857804	     -0.74329541	     23.93955104	    -33.90987594	     -4.16800639	     51.25864112	    127.47668921	     23.46032722	      2.18954517	    -18.22715885	     27.92924998	    -34.11490511	      6.01742492	     53.56975061	    127.71456346	    -10.24739345	     -3.95363861	     -5.80646743
      0.50250000	      1.01259460	      1.32689607	     85.74658428	      0.04456066	      1.62432929	      1.04479537	     41.81318421	     -1.50097614	      0.36302663	    -63.08505148	    -22.09855568	     -4.94230896	     -2.31641047	     45.63190681	     -9.82177246	     -3.67892817	    -43.25248015	    -28.76507169	      3.91017956	     17.74342750	    -51.54620052	      0.19796423	      3.99774415	     20.08315182	     -0.04106342	     -0.71138779	     22.39097323	    -34.20034275	     -4.52688417	     50.96972447	    127.40822744	     23.47037596	      2.12599209	    -18.28233922	     26.31009476	    -34.41410548	      5.77344197	     53.41049419	    127.61172314	    -10.43881076	     -4.06409120	     -5.85630653
      0.50500000	      0.98802821	      1.57890909	     85.71765340	      0.04428804	      1.61844866	      1.03887709	     41.31930561	     -1.52041863	      0.29516638	    -62.15600260	    -21.94746511	     -4.88593169	     -2.31268891	     45.12438894	     -9.83767410	     -3.94812606	    -42.89279522	    -29.01106071	      3.87115094	     17.60191471	    -51.56036295	      0.17856015	      3.88079595	     19.82748713	     -0.01883923	     -0.64369878	     20.68632532	    -34.39452784	     -5.26539640	     50.79635749	    127.27565314	     23.34440344	      1.93360081	    -18.41703601	     24.50934838	    -34.58120293	      5.18440310	     53.36121726	    127.37770792	    -10.87802323	     -4.27535772	     -5.99920971
      0.50750000	      0.97913197	      1.74739825	     85.70304478	      0.04402157	      1.61237182	      1.03310534	     40.92398120	     -1.53637824	      0.19593720	    -61.24665876	    -21.86779496	     -4.80717864	     -2.32665106	     44.62491696	     -9.85917788	     -4.21670024	    -42.37193329	    -29.16993443	      3.84003304	     17.47133689	    -51.46759660	      0.18711108	      3.78288194	     19.47024214	      0.01320964	     -0.59808002	     19.03678608	    -34.62501427	     -5.82669524	     50.58056453	    127.22503769	     23.31259795	      1.81449647	    -18.49404358	     22.78652177	    -34.80183049	      4.81275609	     53.24906647	    127.21641688	    -11.18095172	     -4.44863004	     -6.10530299
      0.51000000	      0.99283144	      1.82794027	     85.69984594	      0.04384875	      1.60603522	      1.02744024	     40.64672833	     -1.52141759	      0.06467390	    -60.38365978	    -21.82969104	     -4.73910200	     -2.34488521	     44.16503434	     -9.89509151	     -4.45734513	    -41.73460735	    -29.28622300	      3.82135042	     17.37878400	    -51.25504913	      0.21785319	      3.70603966	     19.00603504	      0.04980274	     -0.57615531	     17.41135037	    -34.88739911	     -6.22098879	     50.32590420	    127.17277740	     23.32391381	      1.72746241	    -18.52686173	     21.12138579	    -35.05589301	      4.58931357	     53.07746348	    127.10803479	    -11.39563799	     -4.55010611	     -6.18798944
      0.51250000	      0.95229076	      2.07086297	     85.67098405	      0.04363868	      1.59985921	      1.02146376	     40.15369997	     -1.55970618	      0.00796891	    -59.46865518	    -21.72330203	     -4.62227581	     -2.37862895	     43.66367222	     -9.89978994	     -4.73159338	    -41.40340012	    -29.49224178	      3.82586850	     17.22110927	    -51.22849043	      0.17004145	      3.61592281	     18.71453107	      0.08507282	     -0.52910787	     15.58575738	    -35.03995321	     -7.05633667	     50.18853836	    127.07275713	     23.19772664	      1.49875876	    -18.62065752	     19.31705993	    -35.14259717	      4.02343604	     53.00123554	    126.86719994	    -11.85986856	     -4.74949960	     -6.39188612
      0.51500000	      0.95864909	      2.15909320	     85.66245466	      0.04343382	      1.59332124	      1.01576436	     39.86494542	     -1.56860172	     -0.13461385	    -58.62301228	    -21.72242658	     -4.52881363	     -2.41335835	     43.20930866	     -9.94069131	     -4.98863612	    -40.79995409	    -29.60614125	      3.82987284	     17.12843244	    -51.00156707	      0.19661141	      3.54248328	     18.20120373	      0.14060491	     -0.52458677	     13.91632727	    -35.29422435	     -7.47315544	     49.96922425	    127.02862315	     23.21938254	      1.40262846	    -18.63292718	     17.62482532	    -35.37453850	      3.84845389	     52.81871845	    126.77510176	    -12.05221300	     -4.85140327	     -6.48430725
      0.51750000	      0.90188464	      2.44291844	     85.61928489	      0.04318128	      1.58722181	      1.00977307	     39.28625167	     -1.62499871	     -0.17156167	    -57.65720583	    -21.56708030	     -4.33249475	     -2.49670628	     42.57174452	     -9.92712369	     -5.30089016	    -40.33716466	    -29.73781808	      3.87824547	     16.91757463	    -51.05087726	      0.12622267	      3.49569967	     18.08840314	      0.19332037	     -0.52247722	     11.99776975	    -35.36561462	     -8.59695413	     49.90801406	    126.99989271	     23.09163236	      1.13500419	    -18.68902815	     15.86731213	    -35.36908108	      3.27739727	     52.70428841	    126.52715724	    -12.50812009	     -5.08883113	     -6.76262632
